<svg width="231" height="64" viewBox="0 0 231 64" fill="none" xmlns="http://www.w3.org/2000/svg">
<path fill-rule="evenodd" clip-rule="evenodd" d="M9.91823 6.072C3.3915 7.22284 -0.966526 13.4467 0.184313 19.9735L6.072 53.3642C7.22284 59.8909 13.4467 64.249 19.9735 63.0981L53.3642 57.2104C59.8909 56.0596 64.249 49.8357 63.0981 43.309L57.2104 9.91823C56.0596 3.3915 49.8357 -0.966526 43.309 0.184313L9.91823 6.072ZM49.0965 37.3181C50.4338 44.9026 44.5326 51.1175 35.5224 52.7062C26.1131 54.3653 19.0929 50.8993 17.7153 43.0867L17.5343 42.0602L25.1758 40.7128L25.3266 41.5682C25.9802 45.2749 29.3611 47.4423 34.7216 46.4971C39.4548 45.6625 42.1621 43.0096 41.5085 39.3029C41.1164 37.0789 39.7513 35.6732 36.9505 35.4615L26.0421 34.6213C19.7258 34.1475 16.3818 31.856 15.326 25.8682C13.9987 18.3408 18.907 12.8302 27.8601 11.2515C36.6991 9.69296 43.1524 13.6118 44.3892 20.626L44.5602 21.5955L37.2038 22.8926L37.063 22.0942C36.4698 18.7297 33.8503 16.5456 28.946 17.4103C24.7261 18.1544 22.2905 20.3479 22.9039 23.8265C23.3161 26.1645 24.7449 27.265 27.0695 27.4431L38.5314 28.4208C44.6765 28.9248 48.1412 31.9007 49.0965 37.3181Z" fill="#3352EF"/>
<path d="M80.3845 49.7901C88.4334 49.7901 93.8765 44.7523 94.1082 37.8615H86.9278C86.5804 40.8147 84.7274 43.4204 80.5582 43.4204C76.0995 43.4204 74.0148 40.5252 74.0148 36.4717V31.6077C74.0148 27.5542 76.0995 24.6589 80.5582 24.6589C84.7274 24.6589 86.5804 27.2647 86.9278 30.2179H94.1082C93.8765 23.3271 88.4334 18.2893 80.3845 18.2893C71.2933 18.2893 66.1396 24.022 66.1396 31.8972V36.1822C66.1396 44.0574 71.2933 49.7901 80.3845 49.7901Z" fill="#3352EF"/>
<path d="M106.054 49.7901C109.528 49.7901 113.35 48.3424 114.739 46.3157V49.0952H122.325V29.8705C122.325 22.8639 117.171 18.2893 109.644 18.2893C103.158 18.2893 98.4678 21.4162 96.7307 27.2647H104.027C104.837 25.6433 106.517 24.4273 109.238 24.4273C112.481 24.4273 114.45 26.5119 114.45 29.2914V33.4027C113.06 32.2446 110.396 30.8549 106.806 30.8549C99.5681 30.8549 94.6461 33.866 94.6461 40.4093C94.6461 46.2578 99.2785 49.7901 106.054 49.7901ZM108.08 44.5786C104.78 44.5786 102.29 42.9572 102.29 40.1777C102.29 37.3982 104.606 35.8927 108.312 35.8927C111.844 35.8927 114.45 37.4561 114.45 40.1198C114.45 42.6677 111.555 44.5786 108.08 44.5786Z" fill="#3352EF"/>
<path d="M125.16 49.0952H133.035V31.2602C133.035 27.2068 135.294 25.1222 138.826 25.1222C142.648 25.1222 144.327 27.6121 144.327 31.0865V49.0952H152.202V29.8126C152.202 22.5743 148.091 18.2893 141.548 18.2893C137.263 18.2893 134.193 19.7949 132.688 22.5743V18.9842H125.16V49.0952Z" fill="#3352EF"/>
<path d="M155.022 49.0952H162.898V31.2602C162.898 27.2068 165.156 25.1222 168.688 25.1222C172.51 25.1222 174.189 27.6121 174.189 31.0865V49.0952H182.064V29.8126C182.064 22.5743 177.953 18.2893 171.41 18.2893C167.125 18.2893 164.056 19.7949 162.55 22.5743V18.9842H155.022V49.0952Z" fill="#3352EF"/>
<path d="M197.566 49.7901C204.225 49.7901 209.61 45.7946 210.653 40.2935H203.762C203.009 42.3781 200.925 44.1153 197.566 44.1153C192.991 44.1153 191.196 41.0463 191.196 37.514V36.7613H210.884V31.4918C210.884 24.2536 206.368 18.2893 197.45 18.2893C188.417 18.2893 183.553 24.0799 183.553 32.2446V36.3559C183.553 44.8102 189.054 49.7901 197.566 49.7901ZM191.196 30.9128C191.196 26.8594 192.934 23.8483 197.45 23.8483C201.677 23.8483 203.646 26.6857 203.646 30.4495V31.2023H191.196V30.9128Z" fill="#3352EF"/>
<path d="M212.655 49.0952H220.53V35.1978C220.53 29.1177 223.309 26.5698 228.463 26.5698H230.084V18.7526H229.158C224.641 18.7526 221.109 20.316 220.124 24.8327V18.9842H212.655V49.0952Z" fill="#3352EF"/>
</svg>
